<mxfile host="app.diagrams.net" modified="2023-05-27T20:20:00.053Z" agent="Mozilla/5.0 (Windows NT 10.0; Win64; x64; rv:109.0) Gecko/20100101 Firefox/113.0" etag="IZg0XyQXCEBoEYRIL43i" version="21.3.4" type="github">
  <diagram name="Page-1" id="mhGc8PvK2c1Ezx69AqgY">
    <mxGraphModel dx="768" dy="1501" grid="1" gridSize="10" guides="1" tooltips="1" connect="1" arrows="1" fold="1" page="1" pageScale="1" pageWidth="850" pageHeight="1100" math="0" shadow="0">
      <root>
        <mxCell id="0" />
        <mxCell id="1" parent="0" />
        <mxCell id="_9gaDGU1mR7oB69xkHve-7" value="&lt;div align=&quot;left&quot;&gt;886, messages table before,A0,B0,C0&lt;br&gt;886, setup subscription&lt;br&gt;&lt;span style=&quot;background-color: rgb(230, 208, 222);&quot;&gt;1100, update finished, row1=A1&lt;/span&gt;&lt;br&gt;&lt;span style=&quot;background-color: rgb(230, 208, 222);&quot;&gt;1133, update finished, row3=C1&lt;/span&gt;&lt;br&gt;1201, subscribe_status SUBSCRIBED&lt;br&gt;1209, postgres_changes_status&lt;br&gt;1210, update sent, row2=B1&lt;br&gt;1360, connected messages table, A1,B0,C1&lt;br&gt;1364, update finished, row2=B1&lt;br&gt;&lt;span style=&quot;background-color: rgb(255, 244, 195);&quot;&gt;1473, change received, B1&lt;/span&gt;&lt;br&gt;2138, 1 second later messages table, A1,B1,C1&lt;br&gt;&lt;br&gt;&lt;br&gt;775, messages table before,A0,B0,C0&lt;br&gt;776, setup subscription&lt;br&gt;&lt;span style=&quot;background-color: rgb(230, 208, 222);&quot;&gt;943, update finished, row1=A1&lt;/span&gt;&lt;br&gt;1188, subscribe_status SUBSCRIBED&lt;br&gt;1283, postgres_changes_status&lt;br&gt;1284, update sent, row2=B1&lt;br&gt;1407, update finished, row3=C1&lt;br&gt;1416, update finished, row2=B1&lt;br&gt;&lt;span style=&quot;background-color: rgb(255, 206, 159);&quot;&gt;1496, change received, C1&lt;br&gt;1497, change received, B1&lt;/span&gt;&lt;br&gt;1525, connected messages table, A1,B1,C1&lt;br&gt;1925, 1 second later messages table, A1,B1,C1&lt;br&gt;&lt;br&gt;&lt;br&gt;834, messages table before,A0,B0,C0&lt;br&gt;836, setup subscription&lt;br&gt;&lt;span style=&quot;background-color: rgb(230, 208, 222);&quot;&gt;978, update finished, row1=A1&lt;/span&gt;&lt;br&gt;1158, subscribe_status SUBSCRIBED&lt;br&gt;1171, postgres_changes_status&lt;br&gt;1171, update sent, row2=B1&lt;br&gt;1300, update finished, row2=B1&lt;br&gt;&lt;span style=&quot;background-color: rgb(255, 206, 159);&quot;&gt;1319, change received, B1&lt;/span&gt;&lt;br&gt;1391, update finished, row3=C1&lt;br&gt;1402, connected messages table, A1,B1,C1&lt;br&gt;&lt;span style=&quot;background-color: rgb(212, 225, 245);&quot;&gt;1441, change received, C1&lt;/span&gt;&lt;br&gt;1990, 1 second later messages table, A1,B1,C1&lt;br&gt;&lt;br&gt;568, messages table before,A0,B0,C0&lt;br&gt;570, setup subscription&lt;br&gt;&lt;span style=&quot;background-color: rgb(230, 208, 222);&quot;&gt;792, update finished, row1=A1&lt;/span&gt;&lt;br&gt;857, subscribe_status SUBSCRIBED&lt;br&gt;861, postgres_changes_status&lt;br&gt;862, update sent, row2=B1&lt;br&gt;1008, connected messages table, A1,B0,C0&lt;br&gt;1008, update finished, row3=C1&lt;br&gt;1011, update finished, row2=B1&lt;br&gt;&lt;span style=&quot;background-color: rgb(255, 244, 195);&quot;&gt;1066, change received, C1&lt;br&gt;1067, change received, B1&lt;/span&gt;&lt;br&gt;1727, 1 second later messages table, A1,B1,C1&lt;br&gt;&lt;br&gt;&lt;br&gt;758, messages table before,A0,B0,C0&lt;br&gt;760, setup subscription&lt;br&gt;&lt;span style=&quot;background-color: rgb(230, 208, 222);&quot;&gt;922, update finished, row1=A1&lt;/span&gt;&lt;br&gt;1133, subscribe_status SUBSCRIBED&lt;br&gt;1145, postgres_changes_status&lt;br&gt;1145, update sent, row2=B1&lt;br&gt;1286, update finished, row2=B1&lt;br&gt;1289, update finished, row3=C1&lt;br&gt;1365, connected messages table, A1,B1,C1&lt;br&gt;&lt;span style=&quot;background-color: rgb(212, 225, 245);&quot;&gt;1371, change received, B1&lt;br&gt;1374, change received, C1&lt;/span&gt;&lt;br&gt;1899, 1 second later messages table, A1,B1,C1&lt;/div&gt;" style="text;strokeColor=none;align=left;fillColor=none;html=1;verticalAlign=middle;whiteSpace=wrap;rounded=0;" vertex="1" parent="1">
          <mxGeometry x="90" y="-970" width="360" height="1010" as="geometry" />
        </mxCell>
      </root>
    </mxGraphModel>
  </diagram>
</mxfile>
